<svg xmlns="http://www.w3.org/2000/svg" width="120" height="40" viewBox="0 0 120 40" role="img" aria-label="Rótulos Alba"><g fill="none" stroke="#C4552D" stroke-width="3.4" stroke-linecap="round"><path d="M4 31A12 12 0 0 1 28 31Z" fill="#C4552D" stroke-linejoin="round"/><path d="M16 8V12M5.5 12.5L8 15.5M26.5 12.5L24 15.5M1 22.5H4.5M27.5 22.5H31" stroke-width="2.6"/><path d="M2 35.5H30" stroke-width="2.6"/></g><g transform="translate(40 5) scale(1.45)" fill="none" stroke="#C4552D" stroke-width="3.172" stroke-linecap="round" stroke-linejoin="round"><path transform="translate(0.00 0)" d="M0 14A6 6 0 1 0 12 14A6 6 0 1 0 0 14M12 8V20"/><path transform="translate(17.50 0)" d="M0 0V20"/><path transform="translate(23.00 0)" d="M0 0V20M0 14A6 6 0 1 0 12 14A6 6 0 1 0 0 14"/><path transform="translate(40.50 0)" d="M0 14A6 6 0 1 0 12 14A6 6 0 1 0 0 14M12 8V20"/></g></svg>
